<svg xmlns="http://www.w3.org/2000/svg" fill="none" viewBox="0 0 120 120" id="Django-Icon--Streamline-Svg-Logos" height="120" width="120">
  <desc>
    Django Icon Streamline Icon: https://streamlinehq.com
  </desc>
  <path fill="#092e20" d="M105.8985 1.25H14.1015C7.0038374999999995 1.25 1.25 7.0038374999999995 1.25 14.1015v91.797C1.25 112.996125 7.0038374999999995 118.75 14.1015 118.75h91.797C112.996125 118.75 118.75 112.996125 118.75 105.8985V14.1015C118.75 7.0038374999999995 112.996125 1.25 105.8985 1.25Z" stroke-width="1.25"></path>
  <path fill="#fffffd" d="M86.794125 44.485375V74.8825c0 10.4735 -0.76625 15.496875000000001 -3.065125 19.839625 -2.129 4.173 -4.93925 6.81175 -10.728875 9.707125l-12.17625 -5.790125000000001c5.790125000000001 -2.7245000000000004 8.59975 -5.107875 10.38775 -8.770624999999999 1.8736249999999999 -3.74625 2.47025 -8.088999999999999 2.47025 -19.4985V44.485375h13.112250000000001ZM65.934 24.235500000000002v60.695375c-6.72675 1.277125 -11.6655 1.7878749999999999 -17.029375 1.7878749999999999 -16.00825 0 -24.352625 -7.237 -24.352625 -21.116625 0 -13.36825 8.85575 -22.05275 22.564125 -22.05275 2.1285000000000003 0 3.746125 0.16975 5.705 0.680625V24.235500000000002h13.112874999999999ZM48.393750000000004 54.107c-6.641500000000001 0 -10.4735 4.08725 -10.4735 11.239125000000001 0 6.982749999999999 3.661625 10.814 10.388375 10.814 1.446875 0 2.639375 -0.08512499999999999 4.5125 -0.34V54.787499999999994c-1.532625 -0.51025 -2.809625 -0.6805 -4.427375 -0.6805Zm38.400375000000004 -29.80175V37.75875H73.681875V24.305249999999997h13.112250000000001Z" stroke-width="1.25"></path>
</svg>